<svg viewBox="0 0 95 16" fill="none" xmlns="http://www.w3.org/2000/svg">
<path d="M60.5 14.0002V6.4002H62.6V14.0002H60.5ZM61.6 5.4002C61.3 5.4002 61 5.3002 60.8 5.1002C60.6 4.9002 60.5 4.6002 60.5 4.3002C60.5 4.0002 60.6 3.8002 60.8 3.5002C61 3.3002 61.3 3.2002 61.6 3.2002C61.9 3.2002 62.2 3.3002 62.4 3.5002C62.6 3.7002 62.7 4.0002 62.7 4.3002C62.7 4.6002 62.6 4.8002 62.4 5.1002C62.2 5.3002 61.9 5.4002 61.6 5.4002ZM86.4 14.0002V6.4002H88.5V14.0002H86.4ZM87.5 5.4002C87.2 5.4002 86.9 5.3002 86.7 5.1002C86.5 4.9002 86.4 4.6002 86.4 4.3002C86.4 4.0002 86.5 3.8002 86.7 3.5002C86.9 3.3002 87.2 3.2002 87.5 3.2002C87.8 3.2002 88.1 3.3002 88.3 3.5002C88.5 3.7002 88.6 4.0002 88.6 4.3002C88.6 4.6002 88.5 4.8002 88.3 5.1002C88.1 5.3002 87.8 5.4002 87.5 5.4002ZM94.3 6.4002V8.0002H92.9V11.7002C92.9 11.9002 92.9 12.0002 93 12.2002C93.1 12.3002 93.1 12.4002 93.2 12.4002C93.3 12.4002 93.4 12.5002 93.6 12.5002C93.7 12.5002 93.8 12.5002 93.9 12.5002C94 12.5002 94.1 12.5002 94.1 12.5002L94.4 14.1002C94.3 14.1002 94.1 14.2002 94 14.2002C93.8 14.2002 93.6 14.3002 93.3 14.3002C92.8 14.3002 92.3 14.3002 92 14.1002C91.6 13.9002 91.3 13.7002 91.1 13.4002C90.9 13.1002 90.8 12.7002 90.8 12.2002V8.0002H89.8V6.4002H90.8V4.5002H92.9V6.3002H94.3V6.4002ZM76.3 3.8002V14.0002H78.5V11.1002L79.6 9.8002L82.4 14.0002H85L81.2 8.4002L85 3.8002H82.4L78.7 8.3002H78.6V3.8002H76.3ZM74.6 3.8002V14.0002H72.5V3.8002H74.6ZM65.2 13.9002C65.6 14.1002 66 14.2002 66.5 14.2002C66.9 14.2002 67.2 14.2002 67.5 14.1002C67.8 14.0002 68 13.9002 68.2 13.7002C68.4 13.5002 68.6 13.3002 68.7 13.1002H68.8V14.0002H70.8V8.8002C70.8 8.3002 70.7 8.00019 70.5 7.60019C70.3 7.30019 70.1 7.0002 69.8 6.8002C69.5 6.6002 69.2 6.4002 68.8 6.3002C68.4 6.2002 68 6.2002 67.6 6.2002C67 6.2002 66.5 6.3002 66 6.5002C65.5 6.7002 65.2 6.9002 64.9 7.3002C64.6 7.6002 64.4 8.0002 64.3 8.5002L66.3 8.7002C66.4 8.4002 66.5 8.2002 66.7 8.1002C66.9 7.9002 67.2 7.8002 67.6 7.8002C68 7.8002 68.2 7.9002 68.4 8.1002C68.6 8.3002 68.7 8.5002 68.7 8.8002C68.7 9.0002 68.6 9.1002 68.5 9.2002C68.4 9.3002 68.2 9.3002 67.9 9.4002C67.6 9.4002 67.3 9.5002 66.8 9.5002C66.4 9.5002 66.1 9.6002 65.7 9.7002C65.4 9.8002 65.1 9.9002 64.8 10.1002C64.5 10.3002 64.3 10.5002 64.2 10.8002C64 11.1002 64 11.4002 64 11.9002C64 12.4002 64.1 12.8002 64.3 13.2002C64.5 13.5002 64.8 13.7002 65.2 13.9002ZM68 12.5002C67.8 12.6002 67.5 12.7002 67.2 12.7002C66.9 12.7002 66.6 12.6002 66.4 12.5002C66.2 12.3002 66.1 12.1002 66.1 11.8002C66.1 11.6002 66.2 11.4002 66.3 11.3002C66.4 11.2002 66.5 11.1002 66.7 11.0002C66.9 10.9002 67.1 10.9002 67.4 10.8002C67.5 10.8002 67.6 10.8002 67.8 10.7002C67.9 10.7002 68.1 10.7002 68.2 10.6002C68.3 10.6002 68.5 10.5002 68.6 10.5002C68.7 10.5002 68.8 10.4002 68.9 10.4002V11.2002C68.9 11.5002 68.8 11.7002 68.7 11.9002C68.6 12.1002 68.2 12.4002 68 12.5002ZM54.8 6.4002V14.0002H56.9V9.7002C56.9 9.4002 57 9.1002 57.1 8.9002C57.2 8.7002 57.4 8.5002 57.7 8.3002C57.9 8.2002 58.2 8.1002 58.5 8.1002C58.6 8.1002 58.8 8.1002 59 8.1002C59.2 8.1002 59.3 8.1002 59.4 8.2002V6.3002C59.3 6.3002 59.2 6.3002 59.1 6.2002C59 6.2002 58.9 6.2002 58.8 6.2002C58.4 6.2002 58 6.3002 57.7 6.6002C57.4 6.8002 57.1 7.2002 57 7.7002H56.9V6.4002H54.8ZM49.7 14.1002C48.9 14.1002 48.3 13.9002 47.7 13.6002C47.1 13.3002 46.7 12.8002 46.4 12.2002C46.1 11.6002 45.9 10.9002 45.9 10.1002C45.9 9.3002 46.1 8.6002 46.4 8.0002C46.7 7.4002 47.1 6.9002 47.7 6.6002C48.3 6.3002 48.9 6.1002 49.7 6.1002C50.5 6.1002 51.1 6.3002 51.7 6.6002C52.3 6.9002 52.7 7.4002 53 8.0002C53.3 8.6002 53.5 9.3002 53.5 10.1002C53.5 10.9002 53.3 11.6002 53 12.2002C52.7 12.8002 52.3 13.3002 51.7 13.6002C51.1 14.0002 50.4 14.1002 49.7 14.1002ZM49.7 12.5002C50.1 12.5002 50.3 12.4002 50.6 12.2002C50.8 12.0002 51 11.7002 51.1 11.4002C51.2 11.1002 51.3 10.7002 51.3 10.2002C51.3 9.8002 51.2 9.4002 51.1 9.0002C51 8.7002 50.8 8.4002 50.6 8.2002C50.3 8.0002 50 7.9002 49.7 7.9002C49.3 7.9002 49 8.0002 48.8 8.2002C48.6 8.4002 48.4 8.7002 48.3 9.0002C48.2 9.3002 48.1 9.7002 48.1 10.2002C48.1 10.6002 48.2 11.0002 48.3 11.4002C48.4 11.7002 48.6 12.0002 48.8 12.2002C49 12.4002 49.3 12.5002 49.7 12.5002ZM44.9 8.0002V6.4002H43.5V4.5002H41.4V6.3002H40.4V8.0002H41.4V12.0002C41.4 12.5002 41.5 12.9002 41.7 13.2002C41.9 13.5002 42.2 13.8002 42.6 13.9002C43 14.1002 43.4 14.1002 43.9 14.1002C44.2 14.1002 44.4 14.1002 44.6 14.0002C44.8 14.0002 44.9 13.9002 45 13.9002L44.7 12.3002C44.6 12.3002 44.6 12.3002 44.5 12.3002C44.4 12.3002 44.3 12.3002 44.2 12.3002C44.1 12.3002 43.9 12.3002 43.8 12.2002C43.7 12.2002 43.6 12.1002 43.6 12.0002C43.5 11.9002 43.5 11.7002 43.5 11.5002V8.0002H44.9ZM37.1 10.7002V6.4002H39.2V14.0002H37.2V12.6002H37.1C36.9 13.0002 36.6 13.4002 36.2 13.7002C35.8 14.0002 35.3 14.1002 34.7 14.1002C34.2 14.1002 33.7 14.0002 33.4 13.8002C33 13.6002 32.7 13.2002 32.5 12.8002C32.3 12.4002 32.2 11.9002 32.2 11.3002V6.4002H34.3V10.9002C34.3 11.4002 34.4 11.7002 34.7 12.0002C34.9 12.3002 35.3 12.4002 35.7 12.4002C36 12.4002 36.2 12.3002 36.4 12.2002C36.6 12.1002 36.8 11.9002 36.9 11.7002C37 11.4002 37.1 11.1002 37.1 10.7002ZM23.5 3.8002V5.6002H26.6V14.0002H28.7V5.6002H31.8V3.8002H23.5Z" fill="#E4E6E9"/>
<path d="M0 4.6V8.4L5.6 5.6V7.3L9.4 5.5V0L0 4.6ZM5.6 9.5L16 4.5V8.3L5.6 13.4V9.5ZM13.7 11.6L8.5 14.1L16 16V12.2L13.7 11.6Z" fill="#E4E6E9"/>
</svg>
