<svg width="198" height="233" viewBox="0 0 198 233" fill="none" xmlns="http://www.w3.org/2000/svg"><path d="M198 124h-70c-8.837 0-16 7.163-16 16v28c0 8.837 7.163 16 16 16h48a2 2 0 012 2v25.5a2 2 0 01-2 2h-67.5M108 229h69.5c8.837 0 16-7.163 16-16v-28.5c0-8.837-7.163-16-16-16h-49a2 2 0 01-2-2V142a2 2 0 012-2H198M7 112.5V19c0-8.284 6.716-15 15-15h53c8.284 0 15 6.716 15 15v93.5m-68 0V22a2 2 0 012-2h48.5a2 2 0 012 2v90.5M197.5 4H125c-6.627 0-12 5.373-12 12v80c0 6.627 5.373 12 12 12h66a2 2 0 002-2V52a2 2 0 00-2-2h-36.5m0 14h22a2 2 0 012 2v25.5a2 2 0 01-2 2H130a2 2 0 01-2-2V22a2 2 0 012-2h67.5M0 124h26c8.837 0 16 7.163 16 16v26.5a2 2 0 002 2h10a2 2 0 002-2V140c0-8.837 7.163-16 16-16h26.5M0 140h25a2 2 0 012 2v69.5a2 2 0 01-2 2H0M0 229h26c8.837 0 16-7.163 16-16v-27a2 2 0 012-2h10a2 2 0 012 2v27c0 8.837 7.163 16 16 16h26.5m0-89h-25a2 2 0 00-2 2v69.5a2 2 0 002 2h25" stroke="#2C1AFF" stroke-width="8"/></svg>